<svg xmlns="http://www.w3.org/2000/svg" viewBox="0 0 31 32">
  <g fill-rule="evenodd">
    <path
      fill="#000"
      d="M22.8191,8.3425 C22.8451,8.3025 22.8511,8.2975 22.8851,8.2525 C22.9041,8.2255 22.9491,8.1785 22.9791,8.1485 C22.9361,8.1525 22.8701,8.1805 22.8381,8.1825 C22.7851,8.1845 22.7461,8.1825 22.6981,8.1885 L12.8911,8.1915 C12.8441,8.1865 12.8161,8.1995 12.7651,8.1765 C12.7371,8.1635 12.7061,8.1415 12.6741,8.1125 C12.6821,8.1565 12.6861,8.1915 12.6841,8.2235 C12.6781,8.2785 12.6501,8.2915 12.6291,8.3355 L7.6491,15.8885 C7.6171,15.9245 7.5851,15.9795 7.5401,16.0115 C7.5141,16.0295 7.4801,16.0445 7.4401,16.0585 C7.4801,16.0735 7.5141,16.0885 7.5401,16.1055 C7.5851,16.1375 7.6171,16.1935 7.6491,16.2295 L12.6291,23.6005 C12.6501,23.6435 12.6801,23.6645 12.6881,23.7215 C12.6911,23.7515 12.6901,23.7865 12.6841,23.8305 C12.7141,23.8005 12.7421,23.7775 12.7701,23.7645 C12.8191,23.7385 12.8461,23.7555 12.8951,23.7495 L22.6821,23.7475 C22.7301,23.7495 22.7701,23.7475 22.8251,23.7495 C22.8571,23.7515 22.9231,23.7645 22.9641,23.7715 C22.9361,23.7395 22.8911,23.6945 22.8721,23.6685 C22.8421,23.6275 22.8081,23.5965 22.7761,23.5595 L17.8221,16.2185 C17.7901,16.1825 17.7621,16.1375 17.7171,16.1055 C17.6921,16.0885 17.6581,16.0735 17.6171,16.0585 C17.6581,16.0445 17.6901,16.0295 17.7171,16.0115 C17.7621,15.9795 17.7961,15.9245 17.8281,15.8885 L22.8191,8.3425 Z"
    />
    <path
      fill="#C03"
      d="M6.6632,24.9962 L23.7682,25.0002 C23.8172,25.0052 23.8552,25.0052 23.9092,25.0152 C23.9412,25.0192 23.9752,25.0322 24.0152,25.0512 C23.9962,25.0112 23.9832,24.9772 23.9772,24.9472 C23.9682,24.8922 23.9682,24.8532 23.9622,24.8062 L23.9682,7.2242 C23.9732,7.1752 23.9732,7.1362 23.9832,7.0812 C23.9892,7.0512 24.0002,7.0172 24.0192,6.9782 C23.9812,6.9972 23.9472,7.0102 23.9152,7.0152 C23.8602,7.0252 23.7982,7.0232 23.7492,7.0272 L6.6842,7.0302 C6.6352,7.0272 6.5952,7.0252 6.5412,7.0152 C6.5102,7.0102 6.4772,6.9992 6.4372,6.9802 C6.4562,7.0172 6.4692,7.0512 6.4752,7.0832 C6.4842,7.1382 6.4842,7.1772 6.4902,7.2242 L6.4902,24.8102 C6.4842,24.8572 6.4842,24.8962 6.4752,24.9512 C6.4692,24.9812 6.4562,25.0152 6.4372,25.0542 C6.4772,25.0362 6.5102,25.0222 6.5422,25.0172 C6.5972,25.0072 6.6162,25.0022 6.6632,24.9962 L6.6632,24.9962 Z M30.2282,31.4242 C30.2752,31.4302 30.3022,31.4302 30.3562,31.4392 C30.3862,31.4452 30.4202,31.4582 30.4602,31.4772 C30.4412,31.4372 30.4282,31.4032 30.4222,31.3712 C30.4132,31.3172 30.4132,31.2772 30.4072,31.2302 L30.3992,0.8912 C30.4032,0.8442 30.4052,0.8042 30.4142,0.7492 C30.4182,0.7192 30.4312,0.6852 30.4502,0.6462 C30.4132,0.6652 30.3772,0.6782 30.3472,0.6842 C30.2922,0.6932 30.2452,0.6992 30.1962,0.7042 L0.2462,0.7042 C0.1992,0.7002 0.1602,0.6992 0.1052,0.6912 C0.0752,0.6852 0.0412,0.6722 0.0022,0.6532 C0.0202,0.6912 0.0342,0.7252 0.0392,0.7572 C0.0492,0.8122 0.0492,0.8512 0.0542,0.8982 L0.0532,31.2362 C0.0472,31.2832 0.0472,31.3222 0.0372,31.3772 C0.0322,31.4092 0.0192,31.4432 0.0002,31.4802 C0.0392,31.4622 0.0732,31.4482 0.1032,31.4432 C0.1602,31.4332 0.1982,31.4332 0.2462,31.4282 L30.2282,31.4242 Z"
    />
  </g>
</svg>
